<svg width="72" height="43" viewBox="0 0 72 43" fill="none" xmlns="http://www.w3.org/2000/svg">
<path d="M6.12 13.52L8.72 5H10.66V19H9.34V7.58H9.32L7.02 14.96H5.12L2.84 7.62V19H1.52V5H3.48L6.04 13.52H6.12ZM16.7275 14.04C17.1408 14.04 17.4875 13.88 17.7675 13.56C18.0608 13.2267 18.2075 12.8467 18.2075 12.42V11.6C18.2075 11.32 18.1542 11.0867 18.0475 10.9C17.9408 10.7 17.7942 10.54 17.6075 10.42C17.4342 10.3 17.2275 10.2133 16.9875 10.16C16.7475 10.1067 16.5008 10.08 16.2475 10.08C15.7942 10.08 15.3942 10.22 15.0475 10.5C14.7008 10.7667 14.5275 11.1333 14.5275 11.6V14.02L16.7275 14.04ZM13.2275 11.7C13.2275 11.3 13.3008 10.9267 13.4475 10.58C13.5942 10.22 13.7942 9.91333 14.0475 9.66C14.3008 9.39333 14.5942 9.18667 14.9275 9.04C15.2742 8.88 15.6408 8.8 16.0275 8.8H16.6875C17.0742 8.8 17.4342 8.87333 17.7675 9.02C18.1142 9.16667 18.4142 9.37333 18.6675 9.64C18.9208 9.89333 19.1208 10.2 19.2675 10.56C19.4142 10.9067 19.4875 11.2867 19.4875 11.7V12.34C19.4875 12.9133 19.3875 13.3933 19.1875 13.78C18.9875 14.1667 18.7075 14.48 18.3475 14.72C18.0008 14.96 17.5942 15.1333 17.1275 15.24C16.6608 15.3467 16.1675 15.4 15.6475 15.4C15.2742 15.4 14.9008 15.38 14.5275 15.34V16.34C14.6208 16.8067 14.8475 17.1867 15.2075 17.48C15.5808 17.7733 16.0008 17.92 16.4675 17.92C16.4942 17.92 16.6475 17.8933 16.9275 17.84C17.2208 17.7733 17.5342 17.7 17.8675 17.62C18.2542 17.54 18.6808 17.44 19.1475 17.32L19.4675 18.64C18.9608 18.7467 18.4942 18.84 18.0675 18.92C17.7075 18.9867 17.3675 19.0467 17.0475 19.1C16.7275 19.1533 16.5342 19.18 16.4675 19.18C16.0275 19.18 15.6075 19.1 15.2075 18.94C14.8208 18.78 14.4808 18.56 14.1875 18.28C13.8942 18 13.6608 17.6667 13.4875 17.28C13.3142 16.8933 13.2275 16.4667 13.2275 16V11.7ZM27.5116 10.5C27.6716 10.8467 27.7649 11.1867 27.7916 11.52C27.8182 11.8533 27.8316 12.2 27.8316 12.56V19H26.5316V11.96C26.5316 11.3467 26.3649 10.88 26.0316 10.56C25.7116 10.2267 25.3516 10.06 24.9516 10.06C24.7249 10.06 24.4316 10.0933 24.0716 10.16C23.7249 10.2133 23.3182 10.3933 22.8516 10.7V19H21.5916V10.14L21.1116 9.68L21.9916 8.78L22.6116 9.38C23.3049 9.00667 23.9716 8.82 24.6116 8.82C25.2116 8.82 25.7782 8.94667 26.3116 9.2C26.8449 9.45333 27.2449 9.88667 27.5116 10.5ZM34.8448 10.68C34.3382 10.4133 33.9182 10.2467 33.5848 10.18C33.2515 10.1133 32.9715 10.08 32.7448 10.08C32.3448 10.08 31.9982 10.2333 31.7048 10.54C31.4248 10.8333 31.2848 11.1867 31.2848 11.6V16.36C31.2848 16.7867 31.4248 17.1533 31.7048 17.46C31.9982 17.7667 32.3515 17.92 32.7648 17.92C32.8715 17.92 32.9782 17.92 33.0848 17.92C33.1915 17.9067 33.3182 17.88 33.4648 17.84C33.6248 17.8 33.8115 17.74 34.0248 17.66C34.2515 17.58 34.5248 17.46 34.8448 17.3V10.68ZM36.1048 21.14C36.1048 21.6467 36.0182 22.08 35.8448 22.44C35.6848 22.8133 35.4582 23.1133 35.1648 23.34C34.8715 23.58 34.5315 23.7533 34.1448 23.86C33.7715 23.98 33.3648 24.04 32.9248 24.04C32.7115 24.04 32.4382 24.0067 32.1048 23.94C31.7715 23.8733 31.4515 23.8 31.1448 23.72C30.7715 23.6267 30.3848 23.5133 29.9848 23.38L30.3448 22.2C30.7315 22.32 31.0982 22.4267 31.4448 22.52C31.7382 22.6 32.0248 22.6733 32.3048 22.74C32.5848 22.8067 32.7915 22.84 32.9248 22.84C33.4448 22.84 33.8982 22.7 34.2848 22.42C34.6715 22.14 34.8648 21.72 34.8648 21.16V18.76C34.4382 18.9733 34.0715 19.0933 33.7648 19.12C33.4582 19.16 33.1915 19.18 32.9648 19.18H32.7648C32.3782 19.18 32.0182 19.1067 31.6848 18.96C31.3648 18.8 31.0782 18.5933 30.8248 18.34C30.5715 18.0733 30.3715 17.7667 30.2248 17.42C30.0915 17.0733 30.0248 16.7 30.0248 16.3V11.68C30.0248 11.28 30.0915 10.9067 30.2248 10.56C30.3715 10.2133 30.5715 9.91333 30.8248 9.66C31.0782 9.39333 31.3648 9.18667 31.6848 9.04C32.0182 8.88 32.3782 8.8 32.7648 8.8C33.0582 8.8 33.3982 8.84667 33.7848 8.94C34.1848 9.03333 34.6115 9.17333 35.0648 9.36L35.6848 8.74L36.5848 9.64L36.1048 10.1V21.14ZM44.1038 16.18C44.1038 17.18 43.8504 17.9333 43.3438 18.44C42.8504 18.9467 42.2038 19.2 41.4038 19.2C41.1638 19.2 40.9171 19.1733 40.6638 19.12C40.4104 19.08 40.1504 19.0067 39.8838 18.9L38.1638 18.22L38.6438 17.12L40.3838 17.82C40.5571 17.8867 40.7304 17.9333 40.9038 17.96C41.0904 17.9867 41.2638 18 41.4238 18C41.8371 18 42.1838 17.84 42.4638 17.52C42.7571 17.1867 42.9038 16.7133 42.9038 16.1C42.9038 15.8467 42.8504 15.6333 42.7438 15.46C42.6504 15.2733 42.5238 15.1267 42.3638 15.02C42.2171 14.9133 42.0504 14.8333 41.8638 14.78C41.6904 14.7267 41.5238 14.7 41.3638 14.7C40.8838 14.7 40.4438 14.6533 40.0438 14.56C39.6571 14.4667 39.3238 14.3133 39.0438 14.1C38.7638 13.8733 38.5504 13.58 38.4038 13.22C38.2571 12.8467 38.1838 12.38 38.1838 11.82C38.1838 11.3267 38.2571 10.8933 38.4038 10.52C38.5504 10.1333 38.7438 9.81333 38.9838 9.56C39.2371 9.30667 39.5304 9.12 39.8638 9C40.2104 8.86667 40.5838 8.8 40.9838 8.8C41.2238 8.8 41.4638 8.83333 41.7038 8.9C41.9438 8.95333 42.1971 9.02667 42.4638 9.12L43.2438 9.4L42.7438 10.5C42.3971 10.38 42.1238 10.2867 41.9238 10.22C41.7371 10.1533 41.5838 10.1067 41.4638 10.08C41.3571 10.0533 41.2771 10.04 41.2238 10.04C41.1704 10.0267 41.1171 10.02 41.0638 10.02H40.9638C40.5504 10.02 40.1838 10.1867 39.8638 10.52C39.5438 10.8533 39.3838 11.32 39.3838 11.92C39.3838 12.1733 39.4371 12.4 39.5438 12.6C39.6638 12.7867 39.8038 12.9467 39.9638 13.08C40.1238 13.2133 40.2971 13.3133 40.4838 13.38C40.6838 13.4467 40.8638 13.48 41.0238 13.48C41.4504 13.48 41.8504 13.52 42.2238 13.6C42.5971 13.6667 42.9238 13.8 43.2038 14C43.4838 14.2 43.7038 14.4733 43.8638 14.82C44.0238 15.1667 44.1038 15.62 44.1038 16.18ZM50.4503 10.74C50.2103 10.5933 50.0103 10.48 49.8503 10.4C49.7036 10.3067 49.5703 10.24 49.4503 10.2C49.3303 10.16 49.217 10.14 49.1103 10.14C49.0036 10.1267 48.8903 10.12 48.7703 10.12C48.5836 10.12 48.337 10.1733 48.0303 10.28C47.7236 10.3733 47.4103 10.56 47.0903 10.84V18.98H45.8503V10.3C45.7703 10.22 45.6703 10.1267 45.5503 10.02C45.4303 9.91333 45.337 9.82 45.2703 9.74L46.1503 8.84L46.8303 9.5C47.217 9.19333 47.577 9 47.9103 8.92C48.257 8.84 48.557 8.8 48.8103 8.8C49.077 8.8 49.377 8.86 49.7103 8.98C50.0436 9.1 50.5236 9.33333 51.1503 9.68L50.4503 10.74ZM57.2723 11.84C57.2723 11.44 57.199 11.1267 57.0523 10.9C56.919 10.66 56.7457 10.48 56.5323 10.36C56.3323 10.2267 56.119 10.14 55.8923 10.1C55.679 10.06 55.4923 10.04 55.3323 10.04C55.1723 10.04 54.979 10.06 54.7523 10.1C54.5257 10.14 54.3057 10.2267 54.0923 10.36C53.8923 10.48 53.719 10.66 53.5723 10.9C53.4257 11.1267 53.3523 11.44 53.3523 11.84V16.06C53.3523 16.46 53.4257 16.78 53.5723 17.02C53.719 17.26 53.8923 17.4467 54.0923 17.58C54.3057 17.7 54.5257 17.7867 54.7523 17.84C54.979 17.88 55.1723 17.9 55.3323 17.9C55.4923 17.9 55.679 17.88 55.8923 17.84C56.119 17.7867 56.3323 17.7 56.5323 17.58C56.7457 17.4467 56.919 17.26 57.0523 17.02C57.199 16.78 57.2723 16.46 57.2723 16.06V11.84ZM58.4323 16.2C58.4323 16.8267 58.319 17.3333 58.0923 17.72C57.8657 18.0933 57.5857 18.3867 57.2523 18.6C56.9323 18.8133 56.5923 18.9533 56.2323 19.02C55.8857 19.0867 55.5857 19.12 55.3323 19.12C55.079 19.12 54.7723 19.0867 54.4123 19.02C54.0523 18.9533 53.7057 18.8133 53.3723 18.6C53.0523 18.3867 52.779 18.0933 52.5523 17.72C52.3257 17.3333 52.2123 16.8267 52.2123 16.2V11.7C52.2123 11.0733 52.3257 10.5733 52.5523 10.2C52.779 9.81333 53.0523 9.52 53.3723 9.32C53.7057 9.10667 54.0523 8.96667 54.4123 8.9C54.7723 8.83333 55.079 8.8 55.3323 8.8C55.5857 8.8 55.8857 8.83333 56.2323 8.9C56.5923 8.96667 56.9323 9.10667 57.2523 9.32C57.5857 9.52 57.8657 9.81333 58.0923 10.2C58.319 10.5733 58.4323 11.0733 58.4323 11.7V16.2ZM60.7122 5.1H62.0322V6.9H60.7122V5.1ZM60.7122 9H62.0322V19H60.7122V9ZM70.4217 10.5C70.5817 10.8467 70.6751 11.1867 70.7017 11.52C70.7284 11.8533 70.7417 12.2 70.7417 12.56V19H69.4417V11.96C69.4417 11.3467 69.2751 10.88 68.9417 10.56C68.6217 10.2267 68.2617 10.06 67.8617 10.06C67.6351 10.06 67.3417 10.0933 66.9817 10.16C66.6351 10.2133 66.2284 10.3933 65.7617 10.7V19H64.5017V10.14L64.0217 9.68L64.9017 8.78L65.5217 9.38C66.2151 9.00667 66.8817 8.82 67.5217 8.82C68.1217 8.82 68.6884 8.94667 69.2217 9.2C69.7551 9.45333 70.1551 9.88667 70.4217 10.5Z" fill="white"/>
<path d="M32.264 28H32.792V34.96H41.016V28H41.544V40H41.016V35.424H32.792V40H32.264V28ZM44.0765 28H48.3805V28.464H44.6045V34.992H47.7565V35.456H44.6045V39.536H48.3805V40H44.0765V28ZM50.5249 29.2V40H50.0609V27.824L58.8929 38.784V28H59.3569V40.176L50.5249 29.2ZM67.617 28.144C66.561 28.144 65.5957 28.416 64.721 28.96C63.857 29.4933 63.169 30.2133 62.657 31.12C62.1557 32.016 61.905 32.9813 61.905 34.016C61.905 35.0613 62.161 36.032 62.673 36.928C63.185 37.824 63.8623 38.5387 64.705 39.072C65.5583 39.5947 66.4757 39.856 67.457 39.856C68.033 39.856 68.545 39.8027 68.993 39.696C69.4517 39.5893 69.889 39.4187 70.305 39.184V35.424H66.337V34.96H70.833V38.848L70.865 38.832V39.424C70.353 39.7333 69.825 39.9573 69.281 40.096C68.7477 40.2453 68.161 40.32 67.521 40.32C66.401 40.32 65.3717 40.048 64.433 39.504C63.4943 38.9493 62.7477 38.192 62.193 37.232C61.649 36.2613 61.377 35.1733 61.377 33.968C61.377 32.8053 61.6597 31.744 62.225 30.784C62.801 29.824 63.5637 29.0667 64.513 28.512C65.473 27.9573 66.4917 27.68 67.569 27.68C68.3157 27.68 68.9077 27.7493 69.345 27.888C69.7823 28.016 70.289 28.2453 70.865 28.576V29.168C70.321 28.7947 69.8143 28.5333 69.345 28.384C68.8863 28.224 68.3103 28.144 67.617 28.144Z" fill="white"/>
</svg>
